<svg xmlns="http://www.w3.org/2000/svg" width="215" height="62" viewBox="0 0 215 62" fill="none"><g clip-path="url(#clip0_108_100)"><path d="M6.575 0.219238C4.83177 0.221091 3.16047 0.914407 1.92782 2.14706C0.695169 3.37971 0.00185295 5.05101 0 6.79424L0 54.4672C0.00211759 56.2103 0.695551 57.8813 1.92817 59.1138C3.16079 60.3462 4.83194 61.0394 6.575 61.0412H207.81C209.553 61.0394 211.224 60.3462 212.457 59.1138C213.689 57.8813 214.383 56.2103 214.385 54.4672V6.79424C214.383 5.05101 213.69 3.37971 212.457 2.14706C211.225 0.914407 209.553 0.221091 207.81 0.219238L6.575 0.219238Z" fill="white"></path><path d="M170.567 26.7933H173.567V46.8993H170.567V26.7933ZM200.936 34.0363L192.684 52.9963H189.554L192.606 46.2203L187.252 34.0363H190.485L194.055 42.7533H194.158L197.599 34.0363H200.936ZM180.578 44.6163C182.311 44.6163 183.915 43.2963 184.148 41.4343C183.346 41.0463 182.725 40.7613 181.406 40.7613C179.931 40.7613 178.224 41.3573 178.224 42.9093C178.224 44.1243 179.595 44.6163 180.578 44.6163ZM180.94 33.5963C184.38 33.5963 187.045 35.5883 187.045 39.1583V46.8663H184.148V45.3143H184.044C183.346 46.3743 182.233 47.2803 180.216 47.2803C177.577 47.2803 175.223 45.5473 175.223 42.8573C175.223 39.9073 178.146 38.3303 181.017 38.3303C182.44 38.3303 183.604 38.7963 184.148 39.1063V38.8993C184.122 37.2433 182.544 36.3123 180.992 36.3123C179.879 36.3123 178.819 36.6743 178.25 37.7873L175.585 36.6743C176.516 34.5533 178.767 33.5963 180.94 33.5963ZM165.911 33.0363C165.911 31.4493 164.636 29.5913 162.393 29.5913H158.124V36.4843H162.393C164.636 36.4843 165.911 34.5953 165.911 33.0363ZM162.315 26.7933C165.642 26.7933 168.911 29.2013 168.911 33.0373C168.911 36.8743 165.642 39.2823 162.315 39.2823H158.124V46.9003H155.124V26.7933H162.315ZM126.755 40.5003C126.755 38.0903 125.148 36.3283 123.101 36.3283C121.028 36.3283 119.292 38.0903 119.292 40.5003C119.292 42.8843 121.028 44.6203 123.101 44.6203C125.148 44.6203 126.755 42.8843 126.755 40.5003ZM126.547 34.0483H129.398V46.3293C129.398 51.3823 126.418 53.4553 122.894 53.4553C119.577 53.4553 117.582 51.2253 116.83 49.4123L119.448 48.3243C119.914 49.4383 121.054 50.7603 122.894 50.7603C125.148 50.7603 126.547 49.3603 126.547 46.7433V45.7593H126.444C125.77 46.5883 124.474 47.3143 122.842 47.3143C119.422 47.3143 116.286 44.3343 116.286 40.4993C116.286 36.6383 119.422 33.6323 122.842 33.6323C124.474 33.6323 125.77 34.3583 126.444 35.1613H126.547V34.0483ZM131.471 26.7933H134.476V46.8993H131.471V26.7933ZM145.022 37.7273C144.686 36.8723 143.675 36.2763 142.483 36.2763C140.954 36.2763 138.83 37.6243 138.907 40.2663L145.022 37.7273ZM148.547 38.7643L139.4 42.5473C140.099 43.9203 141.187 44.6203 142.716 44.6203C144.245 44.6203 145.307 43.8683 146.085 42.7283L148.417 44.2833C147.666 45.3973 145.852 47.3153 142.716 47.3153C138.83 47.3153 135.928 44.3093 135.928 40.4743C135.928 36.4063 138.855 33.6333 142.379 33.6333C145.929 33.6333 147.666 36.4573 148.236 37.9863L148.547 38.7643ZM85.131 35.7323C85.235 36.2503 85.287 36.8723 85.287 37.5463C85.287 39.7223 84.691 42.4163 82.774 44.3353C80.908 46.2783 78.524 47.3153 75.363 47.3153C69.507 47.3153 64.583 42.5473 64.583 36.6913C64.583 30.8353 69.507 26.0673 75.363 26.0673C78.602 26.0673 80.908 27.3373 82.644 28.9953L80.597 31.0423C79.353 29.8763 77.669 28.9693 75.363 28.9693C71.087 28.9693 67.745 32.4153 67.745 36.6913C67.745 40.9663 71.087 44.4113 75.363 44.4113C78.135 44.4113 79.716 43.2983 80.727 42.2883C81.556 41.4583 82.1 40.2673 82.307 38.6343H75.363V35.7323H85.131ZM97.042 40.4743C97.042 38.0123 95.255 36.3283 93.182 36.3283C91.109 36.3283 89.321 38.0123 89.321 40.4743C89.321 42.9093 91.109 44.6203 93.182 44.6203C95.255 44.6203 97.042 42.9093 97.042 40.4743ZM100.048 40.4743C100.048 44.4123 96.965 47.3143 93.182 47.3143C89.398 47.3143 86.315 44.4123 86.315 40.4743C86.315 36.5093 89.398 33.6333 93.182 33.6333C96.965 33.6333 100.048 36.5103 100.048 40.4743ZM112.022 40.4743C112.022 38.0123 110.234 36.3283 108.161 36.3283C106.088 36.3283 104.3 38.0123 104.3 40.4743C104.3 42.9093 106.088 44.6203 108.161 44.6203C110.234 44.6203 112.022 42.9093 112.022 40.4743ZM115.028 40.4743C115.028 44.4123 111.944 47.3143 108.161 47.3143C104.378 47.3143 101.294 44.4123 101.294 40.4743C101.294 36.5093 104.378 33.6333 108.161 33.6333C111.944 33.6333 115.028 36.5103 115.028 40.4743Z" fill="#243143"></path><path d="M15.3558 10.7873C14.8888 11.2823 14.6128 12.0493 14.6128 13.0453V48.5873C14.6128 49.5823 14.8888 50.3503 15.3558 50.8443L15.4748 50.9613L35.3848 31.0513V30.5813L15.4748 10.6713L15.3558 10.7873Z" fill="#243143"></path><path d="M15.3558 10.7873C14.8888 11.2823 14.6128 12.0493 14.6128 13.0453V48.5873C14.6128 49.5823 14.8888 50.3503 15.3558 50.8443L15.4748 50.9613L35.3848 31.0513V30.8163V30.5813L15.4748 10.6713L15.3558 10.7873Z" stroke="white" stroke-miterlimit="20"></path><path d="M42.0208 37.6892L35.3848 31.0512V30.5812L42.0228 23.9432L42.1718 24.0282L50.0348 28.4962C52.2808 29.7722 52.2808 31.8602 50.0348 33.1362L42.1718 37.6042L42.0208 37.6892Z" fill="#243143"></path><path d="M42.0208 37.6892L35.3848 31.0512V30.8162V30.5812L42.0228 23.9432L42.1718 24.0282L50.0348 28.4962C52.2808 29.7722 52.2808 31.8602 50.0348 33.1362L42.1718 37.6042L42.0208 37.6892Z" stroke="white" stroke-miterlimit="20"></path><path d="M42.172 37.6043L35.385 30.8163L15.356 50.8443C16.097 51.6283 17.319 51.7243 18.696 50.9433L42.172 37.6043Z" fill="#243143"></path><path d="M42.172 37.6043L35.385 30.8163L15.356 50.8443C16.097 51.6283 17.319 51.7243 18.696 50.9433L42.172 37.6043Z" stroke="white" stroke-miterlimit="20"></path><path d="M42.172 24.0283L18.696 10.6883C17.319 9.90625 16.097 10.0043 15.356 10.7873L35.385 30.8163L42.172 24.0283Z" fill="#243143"></path><path d="M42.172 24.0283L18.696 10.6883C17.319 9.90625 16.097 10.0043 15.356 10.7873L35.385 30.8163L42.172 24.0283Z" stroke="white" stroke-miterlimit="20"></path><path d="M72.31 11.9242C71.6837 11.3616 70.8728 11.0485 70.031 11.0442C68.054 11.0442 66.529 12.6792 66.529 14.6842C66.529 16.6902 68.054 18.3102 70.031 18.3102C71.734 18.3102 72.97 17.3222 73.052 15.7552H70.361V14.6432H74.508C74.508 17.9672 72.736 19.5322 70.031 19.5322C67.339 19.5322 65.252 17.3622 65.252 14.6852C65.252 11.9932 67.339 9.82324 70.031 9.82324C71.281 9.82324 72.407 10.3032 73.231 11.0732L72.31 11.9242Z" fill="#243143"></path><path d="M81.8569 9.93323V11.1272H77.5309V14.1492H81.3079V15.3442H77.5309V18.2002H81.9939V19.3952H76.2539V9.93323H81.8569Z" fill="#243143"></path><path d="M90.1389 9.93323V11.1412H87.2679V19.3952H85.9779V11.1412H83.1069V9.93323H90.1389Z" fill="#243143"></path><path d="M96.266 9.93323V19.3952H94.989V9.93323H96.266Z" fill="#243143"></path><path d="M104.973 9.93323V11.1412H102.102V19.3952H100.812V11.1412H97.9409V9.93323H104.973Z" fill="#243143"></path><path d="M110.481 14.6852C110.481 12.6792 112.006 11.0592 113.983 11.0592C115.974 11.0592 117.499 12.6792 117.499 14.6852C117.499 16.6902 115.974 18.2952 113.983 18.2952C112.006 18.2952 110.481 16.6902 110.481 14.6852ZM109.204 14.6852C109.204 17.3632 111.292 19.5322 113.983 19.5322C116.688 19.5322 118.79 17.3622 118.79 14.6852C118.79 11.9932 116.688 9.82324 113.983 9.82324C111.292 9.82324 109.204 11.9932 109.204 14.6852Z" fill="#243143"></path><path d="M126.345 19.3952L122.033 12.2682V19.3952H120.756V9.93323H122.019L126.29 17.0052V9.93323H127.567V19.3952H126.345Z" fill="#243143"></path></g><defs><clipPath id="clip0_108_100"><rect width="215" height="61" fill="white" transform="translate(0 0.219238)"></rect></clipPath></defs></svg>